<?xml version="1.0" encoding="utf-8"?>
<!-- Generator: Adobe Illustrator 19.0.0, SVG Export Plug-In . SVG Version: 6.00 Build 0)  -->
<svg version="1.1" id="Layer_1" xmlns="http://www.w3.org/2000/svg" xmlns:xlink="http://www.w3.org/1999/xlink" x="0px" y="0px"
	 viewBox="-650 1926 400 400" style="enable-background:new -650 1926 400 400;" xml:space="preserve">
<style type="text/css">
	.st0{fill:#FFFFFF;}
</style>
<path class="st0" d="M-616,2252.6c-37.9-47.1-44.9-143.2-17.2-221.6c33.5-94.9,169.7-113.9,229.2-97.7
	c88.7,24.1,136,115.2,150.8,175.4c18.1,73.7-42.7,181.4-129.5,207.3C-469.5,2341.9-578.1,2299.7-616,2252.6z M-481.5,2200
	c32.7,15.6,79.4-0.1,93.8-26.8c11.7-21.8,22.1-61.4,2.3-92.3c-13.3-20.7-58.8-51.5-94-32.4c-29.2,15.9-52.8,46.2-54.2,70.3
	C-535,2142.9-514.1,2184.4-481.5,2200z"/>
</svg>
