<?xml version="1.0" encoding="utf-8"?>
<!-- Generator: Adobe Illustrator 17.0.0, SVG Export Plug-In . SVG Version: 6.00 Build 0)  -->
<!DOCTYPE svg PUBLIC "-//W3C//DTD SVG 1.1//EN" "http://www.w3.org/Graphics/SVG/1.1/DTD/svg11.dtd">
<svg version="1.1" id="Layer_1" xmlns="http://www.w3.org/2000/svg" xmlns:xlink="http://www.w3.org/1999/xlink" x="0px" y="0px"
	 width="400px" height="400px" viewBox="0 0 400 400" enable-background="new 0 0 400 400" xml:space="preserve">
<path fill="#3c64ff" stroke="none" stroke-miterlimit="10" d="M125.008,257.213c-17.107-21.282-20.275-64.67-7.772-100.129
	c15.122-42.888,76.667-51.476,103.567-44.17c40.072,10.887,61.439,52.054,68.112,79.255c8.172,33.329-19.272,81.985-58.501,93.682
	C191.185,297.548,142.12,278.499,125.008,257.213z M181.562,243.619c19.202,9.154,46.739-0.058,55.192-15.759
	c6.901-12.817,12.998-36.14,1.332-54.299c-7.832-12.185-34.563-30.309-55.335-19.029c-17.173,9.32-31.062,27.159-31.875,41.328
	C150.065,210.032,162.356,234.464,181.562,243.619z">
             <animateTransform attributeType="xml" attributeName="transform" type="rotate" from="0 200 200" to="360 200 200" dur="4s" repeatCount="indefinite"/>
	</path>

    <path fill="#3c64ff" stroke="none" opacity="0.5" stroke-miterlimit="10" d="M125.008,257.213c-17.107-21.282-20.275-64.67-7.772-100.129
	c15.122-42.888,76.667-51.476,103.567-44.17c40.072,10.887,61.439,52.054,68.112,79.255c8.172,33.329-19.272,81.985-58.501,93.682
	C191.185,297.548,142.12,278.499,125.008,257.213z M181.562,243.619c19.202,9.154,46.739-0.058,55.192-15.759
	c6.901-12.817,12.998-36.14,1.332-54.299c-7.832-12.185-34.563-30.309-55.335-19.029c-17.173,9.32-31.062,27.159-31.875,41.328
	C150.065,210.032,162.356,234.464,181.562,243.619z">
             <animateTransform attributeType="xml" attributeName="transform" type="rotate" from="360 200 200" to="0 200 200" dur="3s" repeatCount="indefinite"/>
	</path>

    <path fill="#2849b2" stroke="none" opacity="0.2" stroke-miterlimit="10" d="M120.815,260.413c-18.064-22.472-21.409-68.287-8.206-105.728
	c15.968-45.286,80.954-54.355,109.358-46.64c42.313,11.496,64.875,54.964,71.92,83.687c8.629,35.192-20.35,86.57-61.772,98.92
	C190.692,303.002,138.883,282.889,120.815,260.413z M180.531,246.058c20.276,9.666,49.352-0.061,58.279-16.641
	c7.287-13.534,13.725-38.161,1.407-57.335c-8.27-12.867-36.496-32.004-58.429-20.093c-18.133,9.841-32.799,28.678-33.657,43.639
	C147.272,210.593,160.251,236.391,180.531,246.058z">
             <animateTransform attributeType="xml" attributeName="transform" type="rotate" from="0 200 200" to="360 200 200" dur="1s" repeatCount="indefinite"/>
	</path>

    <!--small ameba-->

<path fill="#3c64ff" stroke="none" stroke-miterlimit="10" d="M263.838,112.002c-7.507-9.34-8.896-28.381-3.409-43.939
	c6.634-18.822,33.643-22.587,45.447-19.38c17.585,4.777,26.963,22.84,29.888,34.779c3.585,14.624-8.457,35.976-25.671,41.109
	C292.879,129.7,271.349,121.342,263.838,112.002z M290.506,101.564c6.473,3.083,15.751-0.017,18.601-5.314
	c2.324-4.314,4.379-12.175,0.446-18.294c-2.635-4.108-11.648-10.215-18.644-6.415c-5.79,3.143-10.47,9.156-10.743,13.929
	C279.892,90.242,284.034,98.48,290.506,101.564z">
             <animateTransform attributeType="xml" attributeName="transform" type="rotate" from="360 200 200" to="0 200 200" dur="4s" repeatCount="indefinite"/>
	</path>
</svg>



