<?xml version="1.0" encoding="utf-8"?>
<!-- Generator: Adobe Illustrator 17.0.0, SVG Export Plug-In . SVG Version: 6.00 Build 0)  -->
<!DOCTYPE svg PUBLIC "-//W3C//DTD SVG 1.1//EN" "http://www.w3.org/Graphics/SVG/1.1/DTD/svg11.dtd">
<svg version="1.1" id="Layer_1" xmlns="http://www.w3.org/2000/svg" xmlns:xlink="http://www.w3.org/1999/xlink" x="0px" y="0px"
	 width="661.794px" height="159.448px" viewBox="35.903 42.276 661.794 159.448"
	 enable-background="new 35.903 42.276 661.794 159.448" xml:space="preserve">
<g>
	<path fill="#F9F9F9" d="M193.753,105.238c13.5-12.407,25.685-18.72,40.924-18.72c14.374,0,23.731,5.876,27.649,17.413
		c12.842-11.753,24.821-17.413,39.185-17.413c19.372,0,29.824,10.447,29.824,29.824v80.546h-32.003v-70.531
		c0-9.146-2.612-12.627-11.316-12.627c-7.183,0-12.19,2.391-23.947,9.578v73.58h-30.914v-70.531c0-9.578-3.485-12.627-11.537-12.627
		c-6.966,0-11.973,2.175-23.731,9.357v73.8h-31.999V89.567h25.685L193.753,105.238z"/>
	<path fill="#F9F9F9" d="M377.432,154.001c1.959,16.113,9.141,19.813,25.469,19.813c9.799,0,25.469-0.873,40.055-2.395l3.048,20.025
		c-12.626,6.097-31.566,8.056-46.804,8.056c-40.708,0-55.947-16.544-55.947-56.166c0-42.451,15.671-56.815,54.64-56.815
		c36.573,0,50.722,12.842,50.938,37.443c0,19.593-9.357,30.04-32.651,30.04L377.432,154.001L377.432,154.001z M407.255,134.629
		c8.704,0,10.011-5.007,10.011-11.104c0-10.015-4.35-13.496-18.282-13.496c-16.113,0-21.336,4.355-22.209,24.6H407.255z"/>
	<path fill="#F9F9F9" d="M116.539,132.018c-1.959-16.113-9.146-19.813-25.474-19.813c-9.794,0-25.467,0.873-40.053,2.395
		l-3.049-20.024c12.627-6.098,31.564-8.057,46.803-8.057c40.708,0,55.95,16.544,55.95,56.166c0,42.451-15.675,56.815-54.645,56.815
		c-36.572,0-50.72-12.842-50.938-37.443c0-19.593,9.362-30.04,32.656-30.04L116.539,132.018L116.539,132.018z M86.715,151.389
		c-8.709,0-10.015,5.007-10.015,11.104c0,10.015,4.354,13.496,18.287,13.496c16.108,0,21.331-4.354,22.205-24.6H86.715z"/>
	<path fill="#F9F9F9" d="M654.288,132.018c-1.964-16.113-9.142-19.813-25.469-19.813c-9.799,0-25.469,0.873-40.059,2.395
		l-3.044-20.024c12.627-6.097,31.566-8.056,46.805-8.056c40.708,0,55.946,16.544,55.946,56.166c0,42.451-15.675,56.815-54.64,56.815
		c-36.574,0-50.722-12.842-50.943-37.443c0-19.593,9.362-30.04,32.652-30.04H654.288z M624.46,151.389
		c-8.704,0-10.011,5.007-10.011,11.104c0,10.015,4.355,13.496,18.287,13.496c16.108,0,21.336-4.354,22.205-24.6H624.46z"/>
	<path fill="#F9F9F9" d="M497.136,78.678c0,8.925-0.653,17.417-2.832,25.252c10.23-10.446,23.947-17.412,38.096-17.412
		c27.649,0,39.406,15.891,39.406,55.73c0,32.873-9.578,57.252-52.465,57.252c-15.238,0-41.365-2.612-54.64-8.272V44.5h32.435
		L497.136,78.678L497.136,78.678z M496.916,173.593c7.187,1.526,15.68,2.179,21.772,1.959c14.585-0.433,20.025-7.619,20.025-33.088
		c0-23.295-3.26-30.261-19.156-30.261c-8.488,0-14.801,3.918-22.641,9.146L496.916,173.593L496.916,173.593z"/>
</g>
</svg>
