<?xml version="1.0" encoding="utf-8"?>
<!-- Generator: Adobe Illustrator 19.0.0, SVG Export Plug-In . SVG Version: 6.00 Build 0)  -->
<svg version="1.1" id="Layer_1" xmlns="http://www.w3.org/2000/svg" xmlns:xlink="http://www.w3.org/1999/xlink" x="0px" y="0px"
	 viewBox="-24 -17.5 50 135.5" style="enable-background:new -24 -17.5 50 135.5;" xml:space="preserve">
<style type="text/css">
	.st0{fill:#2B3133;}
</style>
<path id="XMLID_1_" class="st0" d="M-1.6,59.6c-1.1-1.2-1.7-2.3-1.7-3.7c0-1.3,0.6-2.2,1.5-2.5c-1-1.2-1.5-2.2-1.5-3.5
	c0-1.7,1-2.7,2.7-2.7h7.2v2.9H0.4c-0.8,0-1.1,0.2-1.1,1c0,0.6,0.2,1.1,0.8,2.2h6.6V56H0.4c-0.8,0-1.1,0.3-1.1,1c0,0.6,0.2,1,0.8,2.2
	h6.6V62H-3v-2.3L-1.6,59.6z M2.8,42.8c1.5-0.2,1.7-0.8,1.7-2.3c0-0.9-0.1-2.3-0.2-3.6l1.8-0.3c0.6,1.1,0.8,2.9,0.8,4.2
	c0,3.7-1.5,5-5,5c-3.8,0-5.1-1.4-5.1-4.9c0-3.3,1.2-4.5,3.3-4.6c1.7,0,2.7,0.8,2.7,2.9C2.8,39.3,2.8,42.8,2.8,42.8z M1.1,40.1
	c0-0.8-0.4-0.9-1-0.9c-0.9,0-1.2,0.4-1.2,1.7c0,1.5,0.4,2,2.2,2L1.1,40.1L1.1,40.1z M0.9,66.9c-1.5,0.2-1.7,0.8-1.7,2.3
	c0,0.9,0.1,2.3,0.2,3.6l-1.8,0.3c-0.6-1.1-0.8-2.9-0.8-4.2c0-3.7,1.5-5,5-5c3.8,0,5.1,1.4,5.1,4.9c0,3.3-1.1,4.5-3.3,4.5
	c-1.7,0-2.7-0.8-2.7-2.9L0.9,66.9L0.9,66.9z M2.6,69.5c0,0.8,0.4,0.9,1,0.9c0.9,0,1.2-0.4,1.2-1.7c0-1.5-0.4-2-2.2-2L2.6,69.5
	L2.6,69.5z M0.9,17.3c-1.5,0.2-1.7,0.8-1.7,2.3c0,0.9,0.1,2.3,0.2,3.6l-1.8,0.3c-0.6-1.1-0.8-2.9-0.8-4.2c0-3.7,1.5-5,5-5
	c3.8,0,5.1,1.4,5.1,4.9c0,3.3-1.2,4.5-3.3,4.6c-1.7,0-2.7-0.8-2.7-2.9C0.9,20.8,0.9,17.3,0.9,17.3z M2.6,20c0,0.8,0.4,0.9,1,0.9
	c0.9,0,1.2-0.4,1.2-1.7c0-1.5-0.4-2-2.2-2L2.6,20L2.6,20z M-3.9,31.8c0.8,0,1.5,0.1,2.3,0.3c-1-0.9-1.5-2.2-1.5-3.4
	c0-2.5,1.4-3.6,5-3.6c2.9,0,5.2,0.8,5.2,4.7c0,1.3-0.2,3.7-0.8,4.9H-7v-2.9H-3.9z M4.6,31.8c0.1-0.6,0.2-1.4,0.2-2
	c0-1.3-0.7-1.8-3-1.8c-2.1,0-2.7,0.3-2.7,1.7c0,0.8,0.3,1.3,0.8,2L4.6,31.8L4.6,31.8z"/>
<g>
	<path class="st0" d="M-8.1,4.2c-2.1-2.6-2.5-7.9-1-12.3c1.9-5.3,9.4-6.3,12.7-5.4c4.9,1.3,7.5,6.4,8.4,9.7C13,0.3,9.6,6.3,4.8,7.7
		C0,9.1-6,6.8-8.1,4.2z M-1.2,2.5c2.4,1.1,5.7,0,6.8-1.9C6.4-1,7.2-3.8,5.8-6.1C4.8-7.6,1.5-9.8-1-8.4c-2.1,1.1-3.8,3.3-3.9,5.1
		C-5-1.6-3.5,1.4-1.2,2.5z"/>
	<path class="st0" d="M12-9.4c-0.8-1-1-3.1-0.4-4.8c0.7-2.1,3.7-2.5,5-2.1c1.9,0.5,3,2.5,3.3,3.8c0.4,1.6-0.9,4-2.8,4.5
		C15.2-7.5,12.8-8.4,12-9.4z M14.9-10.6c0.7,0.3,1.7,0,2-0.6c0.3-0.5,0.5-1.3,0-2c-0.3-0.5-1.3-1.1-2.1-0.7c-0.6,0.3-1.2,1-1.2,1.5
		C13.8-11.8,14.2-10.9,14.9-10.6z"/>
</g>
</svg>
