<?xml version="1.0" encoding="utf-8"?>
<!-- Generator: Adobe Illustrator 17.0.0, SVG Export Plug-In . SVG Version: 6.00 Build 0)  -->
<!DOCTYPE svg PUBLIC "-//W3C//DTD SVG 1.1//EN" "http://www.w3.org/Graphics/SVG/1.1/DTD/svg11.dtd">
<svg version="1.1" id="Layer_1" xmlns="http://www.w3.org/2000/svg" xmlns:xlink="http://www.w3.org/1999/xlink" x="0px" y="0px"
	 width="154.333px" height="50px" viewBox="1820.167 515 154.333 50" enable-background="new 1820.167 515 154.333 50"
	 xml:space="preserve">
<path id="XMLID_1_" fill="#F2F2F2" d="M1858.304,537.779c1.557-1.453,3.01-2.18,4.774-2.18c1.661,0,2.906,0.83,3.217,1.972
	c1.557-1.349,2.906-1.972,4.567-1.972c2.179,0,3.529,1.349,3.529,3.529v9.341h-3.736v-8.095c0-1.038-0.311-1.453-1.349-1.453
	c-0.83,0-1.453,0.311-2.906,1.038v8.614h-3.529v-8.199c0-1.038-0.415-1.453-1.349-1.453c-0.83,0-1.349,0.311-2.906,1.038v8.614
	h-3.632v-12.558h3.01L1858.304,537.779z M1880.203,543.591c0.311,1.972,1.038,2.18,3.01,2.18c1.142,0,3.01-0.104,4.67-0.311
	l0.415,2.387c-1.453,0.83-3.736,1.038-5.501,1.038c-4.774,0-6.538-1.972-6.538-6.539c0-4.982,1.868-6.642,6.331-6.642
	c4.255,0,5.812,1.557,6.02,4.255c0,2.179-1.038,3.529-3.736,3.529C1884.77,543.591,1880.203,543.591,1880.203,543.591z
	 M1883.732,541.308c1.038,0,1.142-0.519,1.142-1.349c0-1.142-0.519-1.557-2.179-1.557c-1.972,0-2.595,0.519-2.595,2.906H1883.732
	L1883.732,541.308z M1848.756,541.1c-0.311-1.972-1.038-2.18-3.01-2.18c-1.142,0-3.01,0.104-4.67,0.311l-0.415-2.387
	c1.453-0.83,3.736-1.038,5.501-1.038c4.774,0,6.539,1.972,6.539,6.539c0,4.982-1.868,6.642-6.331,6.642
	c-4.255,0-5.812-1.453-5.812-4.255c0-2.179,1.038-3.529,3.736-3.529h4.463V541.1z M1845.435,543.28
	c-1.038,0-1.142,0.519-1.142,1.349c0,1.142,0.519,1.557,2.179,1.557c1.972,0,2.595-0.519,2.595-2.906H1845.435L1845.435,543.28z
	 M1913.415,541.1c-0.311-1.972-1.038-2.18-3.01-2.18c-1.142,0-3.01,0.104-4.67,0.311l-0.415-2.387
	c1.453-0.83,3.736-1.038,5.501-1.038c4.774,0,6.538,1.972,6.538,6.539c0,4.982-1.868,6.642-6.331,6.642
	c-4.255,0-5.812-1.557-6.02-4.255c0-2.179,1.038-3.529,3.736-3.529C1908.848,541.1,1913.415,541.1,1913.415,541.1z M1909.886,543.28
	c-1.038,0-1.142,0.519-1.142,1.349c0,1.142,0.519,1.557,2.18,1.557c1.972,0,2.595-0.519,2.595-2.906H1909.886L1909.886,543.28z
	 M1894.526,534.873c0,1.038-0.104,1.972-0.415,3.01c1.142-1.349,2.906-1.972,4.463-1.972c3.217,0,4.67,1.868,4.67,6.539
	c0,3.736-1.038,6.746-6.123,6.746c-1.661,0-4.774-0.311-6.331-1.038v-17.332h3.736
	C1894.526,530.826,1894.526,534.873,1894.526,534.873z M1894.526,545.875c0.83,0.104,1.868,0.311,2.595,0.311
	c1.661,0,2.387-0.934,2.387-3.944c0-2.698-0.415-3.529-2.179-3.529c-1.038,0-1.661,0.415-2.595,1.038L1894.526,545.875
	L1894.526,545.875z"/>
<g>
	<path fill="#F2F2F2" d="M1926.655,549.105c-2.179-2.698-2.595-8.303-1.038-12.973c1.972-5.604,9.86-6.642,13.388-5.708
		c5.189,1.349,7.888,6.746,8.822,10.171c1.038,4.359-2.491,10.586-7.576,12.143C1935.166,554.294,1928.939,551.907,1926.655,549.105
		z M1933.92,547.341c2.491,1.142,6.02,0,7.161-1.972c0.83-1.661,1.661-4.67,0.208-7.057c-1.038-1.557-4.567-3.944-7.161-2.387
		c-2.18,1.142-4.048,3.425-4.151,5.397C1929.977,543.085,1931.533,546.199,1933.92,547.341z"/>
	<path fill="#F2F2F2" d="M1947.828,534.886c-0.83-1.038-1.038-3.217-0.415-5.086c0.727-2.18,3.944-2.595,5.293-2.18
		c1.972,0.519,3.114,2.595,3.425,4.048c0.415,1.661-0.934,4.255-2.906,4.774C1951.253,536.858,1948.658,535.924,1947.828,534.886z
		 M1950.838,533.537c0.727,0.311,1.764,0,2.076-0.623c0.311-0.519,0.519-1.349,0-2.076c-0.311-0.519-1.349-1.142-2.179-0.727
		c-0.623,0.311-1.245,1.038-1.245,1.557C1949.696,532.291,1950.111,533.226,1950.838,533.537z"/>
</g>
</svg>
