<?xml version="1.0" encoding="utf-8"?>
<!-- Generator: Adobe Illustrator 17.0.0, SVG Export Plug-In . SVG Version: 6.00 Build 0)  -->
<!DOCTYPE svg PUBLIC "-//W3C//DTD SVG 1.1//EN" "http://www.w3.org/Graphics/SVG/1.1/DTD/svg11.dtd">
<svg version="1.1" id="Layer_1" xmlns="http://www.w3.org/2000/svg" xmlns:xlink="http://www.w3.org/1999/xlink" x="0px" y="0px"
	 width="680px" height="382.5px" viewBox="0 208.75 680 382.5" enable-background="new 0 208.75 680 382.5" xml:space="preserve">
<path id="XMLID_1_" fill="#292B31" d="M0,208.75v382.5h680v-382.5H0z M210.594,521.031c-51.248,15.265-115.352-9.598-137.7-37.4
	c-22.348-27.802-26.492-84.469-10.165-130.794c19.762-56.029,100.158-67.256,135.292-57.694c52.346,14.237,80.254,68,88.967,103.523
	C297.683,442.194,261.842,505.767,210.594,521.031z M341.423,353.51c-20.188,6.021-45.44-3.79-54.258-14.733
	c-8.819-10.944-10.448-33.292-4.002-51.531c7.792-22.065,39.454-26.492,53.302-22.737c20.648,5.596,31.627,26.81,35.063,40.8
	C375.742,322.45,361.61,347.49,341.423,353.51z M340.785,298.827c4.604,7.19,2.196,16.398-0.531,21.462
	c-3.329,6.198-14.237,9.846-21.817,6.233c-7.579-3.613-12.467-13.281-12.112-18.877c0.319-5.596,5.808-12.644,12.608-16.327
	C327.115,286.856,337.669,294.01,340.785,298.827z M220.617,374.335c15.229,23.729,7.26,54.188-1.735,70.94
	c-11.05,20.506-47.033,32.548-72.108,20.577c-25.075-11.971-41.154-43.881-40.092-62.404c1.063-18.523,19.196-41.827,41.65-53.975
	C175.46,334.74,210.381,358.433,220.617,374.335z"/>
</svg>
